<svg width="24" height="26" viewBox="0 0 24 26" fill="none" xmlns="http://www.w3.org/2000/svg">
    <path d="M11.5556 1.90735e-06C11.9648 1.90735e-06 12.3076 0.13867 12.584 0.416002C12.8604 0.693336 12.999 1.03615 13 1.44445C13.001 1.85274 12.8623 2.19556 12.584 2.47289C12.3057 2.75023 11.9629 2.88889 11.5556 2.88889H2.88889V23.1111H11.5556C11.9648 23.1111 12.3076 23.2498 12.584 23.5271C12.8604 23.8044 12.999 24.1473 13 24.5556C13.001 24.9639 12.8623 25.3067 12.584 25.584C12.3057 25.8613 11.9629 26 11.5556 26H2.88889C2.09445 26 1.41411 25.7169 0.847893 25.1507C0.28167 24.5844 -0.000959396 23.9046 3.8147e-06 23.1111V2.88889C3.8147e-06 2.09445 0.282633 1.41411 0.847893 0.847891C1.41315 0.28167 2.09348 -0.000959396 2.88889 1.90735e-06H11.5556Z" fill="white"/>
    <path d="M18.8083 14.4444H8.44445C8.03519 14.4444 7.69238 14.3058 7.41601 14.0284C7.13963 13.7511 7.00097 13.4083 7 13C6.99904 12.5917 7.13771 12.2489 7.41601 11.9716C7.6943 11.6942 8.03712 11.5556 8.44445 11.5556H18.8083L16.1 8.84722C15.8352 8.58241 15.7028 8.25741 15.7028 7.87222C15.7028 7.48704 15.8352 7.15 16.1 6.86111C16.3648 6.57222 16.7019 6.42152 17.1111 6.409C17.5204 6.39648 17.8694 6.53515 18.1583 6.825L23.3222 11.9889C23.6111 12.2778 23.7556 12.6148 23.7556 13C23.7556 13.3852 23.6111 13.7222 23.3222 14.0111L18.1583 19.175C17.8694 19.4639 17.5266 19.6026 17.1299 19.591C16.7331 19.5794 16.3899 19.4287 16.1 19.1389C15.8352 18.85 15.709 18.5072 15.7216 18.1104C15.7341 17.7137 15.8723 17.3824 16.1361 17.1167L18.8083 14.4444Z" fill="#FFF4F2"/>
</svg>
