<svg width="293" height="52" viewBox="0 0 293 52" fill="none" xmlns="http://www.w3.org/2000/svg">
    <path
            d="M170.36 49.0565L170.315 52.0003L157.449 51.8656V43.6115C157.449 37.2943 156.827 34.8508 156.455 33.9529C156.378 33.7669 156.295 33.5937 156.212 33.4206C155.647 32.3175 154.749 31.3811 153.486 30.6115C153.05 30.3486 152.588 30.1241 152.101 29.9317C150.914 29.4763 149.529 29.2455 147.99 29.2455C147.611 29.2455 147.284 29.2583 146.976 29.2775C145.258 29.3994 143.693 29.8034 142.185 30.5217C141.615 30.7847 141.076 31.0925 140.518 31.4517C139.344 32.2213 138.325 33.1448 137.484 34.1774C136.42 35.4921 135.887 36.7043 135.599 37.3584C133.797 41.4502 133.758 46.8054 133.829 48.9154L133.925 51.9746L121.085 51.9554L121.105 1.93071H133.284V23.1527C134.406 22.1971 135.592 21.357 136.843 20.6258C137.266 20.3821 137.69 20.1448 138.113 19.9332C138.658 19.651 139.203 19.3944 139.748 19.1636C141.871 18.2593 144.116 17.6692 146.405 17.4063C147.335 17.2908 148.304 17.2331 149.349 17.2331C151.286 17.2331 153.127 17.4448 154.833 17.8617C156.879 18.3491 158.828 19.1443 160.611 20.2218C160.791 20.3308 160.964 20.4398 161.144 20.5553C161.612 20.8631 162.067 21.1838 162.497 21.5301C164.902 23.4092 166.749 25.8015 168.038 28.6683C168.096 28.8029 168.173 28.9761 168.262 29.1877C169.859 33.1127 170.276 39.1734 170.347 43.5602C170.372 45.388 170.372 47.2351 170.347 49.0501L170.36 49.0565Z"
            fill="#FF2C00"/>
    <path
            d="M87.8767 1.09691L55.0015 51.8719H41.3409L52.6157 34.4274L30.669 1.09691H44.3745L59.4781 23.9351L74.152 1.09691H87.8767Z"
            fill="#FF2C00"/>
    <path
            d="M115.146 18.259V29.1489H105.212V51.9807H93.033V29.1489H84.4904V18.259H93.033V1.66103H105.212V18.259H115.146Z"
            fill="#FF2C00"/>
    <path
            d="M222.77 24.4223V51.7883H210.456V24.4223C210.456 18.6823 209.898 16.4761 209.565 15.6616C209.071 14.4558 208.212 13.4938 206.948 12.7178C205.608 11.9033 203.998 11.5057 202.042 11.5057C199.579 11.5057 197.392 12.1535 195.346 13.4939C193.32 14.8214 191.877 16.5338 190.947 18.74C190.26 20.369 189.446 23.8643 189.446 31.3167V51.7819H177.267V25.9294C177.267 19.3621 176.696 16.8865 176.356 15.9886C175.856 14.6547 174.984 13.6093 173.707 12.7884C172.354 11.9225 170.757 11.5057 168.808 11.5057C166.467 11.5057 164.325 12.1406 162.272 13.449C162.009 13.6157 161.753 13.7889 161.509 13.9684C159.829 13.1539 158.065 12.5318 156.257 12.1021C154.089 11.5698 151.774 11.3069 149.368 11.3069C148.073 11.3069 146.874 11.3774 145.751 11.5185C145.181 11.5891 144.616 11.6724 144.052 11.7622V1.16083H156.237V4.1623C157.065 3.7326 157.898 3.31574 158.738 2.92452C162.266 1.25703 164.087 0.705473 165.742 0.397629C167.127 0.134679 168.557 0.00641968 169.994 0.00641968C172.72 0.00641968 175.343 0.506665 177.812 1.48792C180.313 2.48841 182.41 3.8673 184.052 5.57968C184.713 6.27874 185.329 7.07399 185.912 7.96545C187.631 6.00936 189.581 4.3932 191.736 3.13617C195.308 1.05181 199.207 0 203.318 0C207.211 0 210.726 0.92995 213.759 2.7706C216.844 4.64332 219.166 7.28565 220.66 10.627C222.097 13.8402 222.796 18.3488 222.796 24.4159L222.77 24.4223Z"
            fill="#FF2C00"/>
    <path
            d="M222.77 24.4223V51.7883H210.456V24.4223C210.456 18.6823 209.898 16.4761 209.565 15.6616C209.071 14.4558 208.212 13.4938 206.948 12.7178C205.608 11.9033 203.998 11.5057 202.042 11.5057C199.579 11.5057 197.392 12.1535 195.346 13.4939C193.32 14.8214 191.877 16.5338 190.947 18.74C190.26 20.369 189.446 23.8643 189.446 31.3167V51.7819H177.267V25.9294C177.267 19.3621 176.696 16.8865 176.356 15.9886C175.856 14.6547 174.984 13.6093 173.707 12.7884C172.354 11.9225 170.757 11.5057 168.808 11.5057C166.467 11.5057 164.325 12.1406 162.272 13.449C162.009 13.6157 161.753 13.7889 161.509 13.9684C159.829 13.1539 158.065 12.5318 156.257 12.1021C154.089 11.5698 151.774 11.3069 149.368 11.3069C148.073 11.3069 146.874 11.3774 145.751 11.5185C145.181 11.5891 144.616 11.6724 144.052 11.7622V1.16083H156.237V4.1623C157.065 3.7326 157.898 3.31574 158.738 2.92452C162.266 1.25703 164.087 0.705473 165.742 0.397629C167.127 0.134679 168.557 0.00641968 169.994 0.00641968C172.72 0.00641968 175.343 0.506665 177.812 1.48792C180.313 2.48841 182.41 3.8673 184.052 5.57968C184.713 6.27874 185.329 7.07399 185.912 7.96545C187.631 6.00936 189.581 4.3932 191.736 3.13617C195.308 1.05181 199.207 0 203.318 0C207.211 0 210.726 0.92995 213.759 2.7706C216.844 4.64332 219.166 7.28565 220.66 10.627C222.097 13.8402 222.796 18.3488 222.796 24.4159L222.77 24.4223Z"
            fill="#FF2C00"/>
    <path
            d="M292.785 51.9614H277.611L264.233 35.0107L250.931 51.9614H235.937L236.007 51.8652H227.067V17.6945H239.246V47.7413L256.697 25.4611L237.656 1.34029H252.708L264.214 15.8731L275.597 1.34029H290.65L271.762 25.4034L292.785 51.9614Z"
            fill="#FF2C00"/>
    <path
            d="M28.5205 3.31591V12.0125L25.4035 11.8522C25.1919 11.8394 24.9674 11.8329 24.7494 11.8329C22.4085 11.8329 20.2664 12.4615 18.2141 13.7698C16.1746 15.0653 14.706 16.7456 13.7311 18.9262C12.6986 21.2286 12.1791 25.0061 12.1791 30.1304V51.9681H0V4.39339L0.121852 1.49452H12.1791V4.89362C12.9423 4.30359 13.7055 3.79053 14.4815 3.348C17.9704 1.42398 21.6709 0.423458 25.5062 0.352911L28.5269 0.295212L28.5141 3.31591H28.5205Z"
            fill="#FF2C00"/>
</svg>