<svg width="27" height="30" fill="white" stroke="#A0A1FF" viewBox="0 0 27 30" xmlns="http://www.w3.org/2000/svg">
    <path d="M2 28H25M4.39487 16.7148C3.78195 17.332 3.43765 18.1683 3.4375 19.0403V23.6667H8.07056C8.93881 23.6667 9.77112 23.3201 10.3849 22.7019L24.0412 8.97269C24.6539 8.35534 24.998 7.51905 24.998 6.64718C24.998 5.77531 24.6539 4.93901 24.0412 4.32166L22.6928 2.96391C22.3887 2.6582 22.0277 2.41572 21.6302 2.25032C21.2328 2.08493 20.8069 1.99987 20.3767 2C19.9465 2.00013 19.5206 2.08546 19.1233 2.25111C18.726 2.41675 18.3651 2.65946 18.0612 2.96536L4.39487 16.7148Z" stroke="#A0A1FF" stroke-width="3" stroke-linecap="round" stroke-linejoin="round"/>
</svg>
